<svg width="18" height="18" viewBox="0 0 18 18" fill="none" xmlns="http://www.w3.org/2000/svg">
<path d="M4 4.45581H17C17.037 4.45586 18 4.45708 18 5.45581L17 11.4558C16.911 11.9468 16.5709 12.4558 16.0642 12.4558H6L6.09506 13.7543C6.16424 14.0849 6.45721 14.4558 6.79145 14.4558H15.6066C15.6443 14.4558 15.6808 14.4612 15.7158 14.4713C16.441 14.5762 17 15.202 17 15.9558C17 16.7829 16.3271 17.4558 15.5 17.4558C14.6729 17.4558 14 16.783 14 15.9558C14 15.7806 14.0302 15.6123 14.0857 15.4558H7.91434C7.9698 15.6123 8 15.7806 8 15.9558C8 16.783 7.32711 17.4558 6.5 17.4558C5.67289 17.4558 5 16.7829 5 15.9558C5 15.4741 5.2282 15.0448 5.58216 14.7701C5.39546 14.5238 5.26019 14.2352 5.19962 13.9463L4.80856 12.0827L2 1.45581H0.457618C0.204824 1.45581 0 1.17403 0 0.918458C0 0.662885 0.204824 0.455811 0.457618 0.455811H2.56171C2.77221 0.455811 2.95559 0.601155 3.00603 0.807873L4 4.45581Z" fill="#BCBFC2"/>
</svg>
