<svg width="16" height="16" viewBox="0 0 16 16" fill="none" xmlns="http://www.w3.org/2000/svg">
<g clip-path="url(#clip0_408_1075)">
<path d="M7.99928 9.04617C8.57706 9.04617 9.04544 8.57779 9.04544 8.00001C9.04544 7.42224 8.57706 6.95386 7.99928 6.95386C7.42151 6.95386 6.95312 7.42224 6.95312 8.00001C6.95312 8.57779 7.42151 9.04617 7.99928 9.04617Z" fill="#23262F"/>
<path d="M8 0C3.58174 0 0 3.58174 0 8C0 12.4183 3.58174 16 8 16C12.4183 16 16 12.4183 16 8C16 3.58174 12.4183 0 8 0ZM4.94972 1.98966C5.86547 1.52413 6.90209 1.26158 8 1.26158C8.06448 1.26158 8.12838 1.26244 8.19229 1.26418C8.29841 1.26707 8.37127 1.53078 8.35537 1.84971L8.27383 3.49124C8.25793 3.81017 8.19026 4.06549 8.1226 4.06347C8.08183 4.06231 8.04106 4.06173 8 4.06173C7.42256 4.06173 6.87404 4.18607 6.37988 4.4093C6.0887 4.54086 5.74027 4.4625 5.57776 4.18752L4.74038 2.77153C4.57787 2.49655 4.66491 2.13453 4.94972 1.98966ZM4.6224 5.0009L3.38541 3.91889C3.14483 3.70868 3.11996 3.34232 3.351 3.12199C3.35649 3.11678 3.36169 3.11187 3.36748 3.10666C3.59938 2.88691 3.96284 2.93172 4.15889 3.18358L5.16919 4.48014C5.36553 4.73199 5.41121 5.02635 5.28225 5.14924C5.153 5.27271 4.86298 5.21112 4.6224 5.0009ZM5.16919 8C5.16919 6.43655 6.43655 5.16919 8 5.16919C9.56345 5.16919 10.8308 6.43655 10.8308 8C10.8308 9.56345 9.56345 10.8308 8 10.8308C6.43655 10.8308 5.16919 9.56345 5.16919 8ZM11.037 14.017C10.1244 14.4785 9.09242 14.7384 8 14.7384C7.92829 14.7384 7.85687 14.7373 7.78574 14.7352C7.66747 14.7315 7.58564 14.4666 7.60299 14.1477L7.69263 12.5065C7.71027 12.1875 7.78574 11.9336 7.86207 11.9362C7.90776 11.9377 7.95374 11.9386 8 11.9386C8.53031 11.9386 9.03575 11.8339 9.49753 11.6442C9.79304 11.5228 10.1553 11.6026 10.3294 11.8703L11.2261 13.2496C11.4002 13.517 11.3221 13.8727 11.037 14.017ZM12.6126 12.9124C12.3911 13.1206 12.0328 13.0717 11.831 12.8242L10.7929 11.5499C10.5911 11.3024 10.5396 11.0156 10.6671 10.8979C10.795 10.7802 11.0844 10.8461 11.3247 11.0566L12.5623 12.1392C12.8028 12.3494 12.8344 12.7042 12.6126 12.9124Z" fill="#23262F"/>
</g>
<defs>
<clipPath id="clip0_408_1075">
<rect width="16" height="16" fill="white"/>
</clipPath>
</defs>
</svg>
